<svg width="101" height="100" viewBox="0 0 101 100" fill="none" xmlns="http://www.w3.org/2000/svg">
<g clip-path="url(#clip0_399_5548)">
<path d="M50.5 3.33322L51.9933 0.353221C51.5298 0.120945 51.0185 0 50.5 0C49.9815 0 49.4702 0.120945 49.0067 0.353221L50.5 3.33322ZM30.5 56.6666V53.3332H27.1667V56.6666H30.5ZM57.1667 56.6666H60.5V53.3332H57.1667V56.6666ZM0.5 99.9999H100.5V93.3332H0.5V99.9999ZM49.0067 0.353221L9.00667 20.3532L11.9933 26.3132L51.9933 6.31322L49.0067 0.353221ZM0.5 39.9999H100.5V33.3332H0.5V39.9999ZM91.9933 20.3532L51.9933 0.353221L49.0067 6.31322L89.0067 26.3132L91.9933 20.3532ZM7.16667 36.6666V96.6666H13.8333V36.6666H7.16667ZM87.1667 36.6666V96.6666H93.8333V36.6666H87.1667ZM33.8333 96.6666V56.6666H27.1667V96.6666H33.8333ZM30.5 59.9999H57.1667V53.3332H30.5V59.9999ZM53.8333 56.6666V96.6666H60.5V56.6666H53.8333Z" fill="#175B85"/>
</g>
<defs>
<clipPath id="clip0_399_5548">
<rect width="100" height="100" fill="white" transform="translate(0.5)"/>
</clipPath>
</defs>
</svg>
