<svg width="100" height="100" viewBox="0 0 100 100" fill="none" xmlns="http://www.w3.org/2000/svg">
<g clip-path="url(#clip0_399_5542)">
<path d="M99.5 64.3066V75H93.3125V66.9434L88.0435 61.5723L88.1885 61.4258C86.8994 62.1419 85.4653 62.5 83.8862 62.5C82.4683 62.5 81.1631 62.207 79.9707 61.6211L74.75 66.9434V75H68.5625V64.3066L75.5718 57.2754L75.4268 56.9336L63.2935 29.4922L43.5708 50.0488C43.6353 50.5697 43.6836 51.0742 43.7158 51.5625C43.748 52.0508 43.7803 52.5716 43.8125 53.125V93.75H50V100H0.5V93.75H6.6875V53.125C6.6875 50.651 7.13867 48.3236 8.04102 46.1426C8.94336 43.9616 10.168 42.0247 11.7148 40.332C13.2617 38.6393 15.0986 37.2721 17.2256 36.2305C19.3525 35.1888 21.6406 34.5866 24.0898 34.4238L53.4805 3.80859C54.6406 2.57161 55.9941 1.6276 57.541 0.976562C59.0879 0.325521 60.6992 0 62.375 0C63.5029 0 64.6309 0.16276 65.7588 0.488281C66.8867 0.813802 67.9663 1.30208 68.9976 1.95312C70.0288 2.60417 70.9473 3.35286 71.7529 4.19922C72.5586 5.04557 73.2031 6.02214 73.6865 7.12891L92.249 49.0234C92.5391 49.6745 92.7485 50.3418 92.8774 51.0254C93.0063 51.709 93.0708 52.3926 93.0708 53.0762C93.0708 53.8574 92.9902 54.6224 92.8291 55.3711C92.668 56.1198 92.394 56.8522 92.0073 57.5684L92.394 57.1777L99.5 64.3066ZM37.625 93.75V53.125C37.625 51.3997 37.3027 49.7884 36.6582 48.291C36.0137 46.7936 35.1274 45.459 33.9995 44.2871C32.8716 43.1152 31.5664 42.2201 30.084 41.6016C28.6016 40.9831 26.9902 40.6576 25.25 40.625C23.542 40.625 21.9468 40.9505 20.4644 41.6016C18.9819 42.2526 17.6606 43.1478 16.5005 44.2871C15.3403 45.4264 14.4541 46.7448 13.8418 48.2422C13.2295 49.7396 12.9072 51.3672 12.875 53.125V93.75H37.625ZM31.6309 35.498C33.6289 36.2467 35.4497 37.3047 37.0933 38.6719C38.7368 40.0391 40.1064 41.6504 41.2021 43.5059L66.8223 16.8457C67.9824 15.6087 68.5625 14.1602 68.5625 12.5C68.5625 11.6211 68.4014 10.8073 68.0791 10.0586C67.7568 9.3099 67.3218 8.65885 66.7739 8.10547C66.2261 7.55208 65.5654 7.09635 64.792 6.73828C64.0186 6.38021 63.2129 6.21745 62.375 6.25C60.6025 6.25 59.1201 6.88477 57.9277 8.1543L31.6309 35.498ZM72.478 19.6777C71.8979 20.6217 71.189 21.4844 70.3511 22.2656C69.5132 23.0469 68.7075 23.8444 67.9341 24.6582L77.457 46.1914L83.1128 43.75L72.478 19.6777ZM83.8862 56.25C84.8208 56.25 85.562 55.9408 86.1099 55.3223C86.6577 54.7038 86.9316 53.9551 86.9316 53.0762C86.9316 52.4251 86.7866 51.8066 86.4966 51.2207C86.2065 50.6348 85.9165 50.0488 85.6265 49.4629L79.9707 51.9043C80.1641 52.3926 80.3574 52.8971 80.5508 53.418C80.7441 53.9388 80.9858 54.4108 81.2759 54.834C81.5659 55.2572 81.9043 55.599 82.291 55.8594C82.6777 56.1198 83.2095 56.25 83.8862 56.25ZM25.25 50C26.1201 50 26.9258 50.1628 27.667 50.4883C28.4082 50.8138 29.0527 51.2533 29.6006 51.8066C30.1484 52.36 30.5996 53.0273 30.9541 53.8086C31.3086 54.5898 31.4697 55.4036 31.4375 56.25C31.4375 57.1289 31.2764 57.9427 30.9541 58.6914C30.6318 59.4401 30.1968 60.0911 29.6489 60.6445C29.1011 61.1979 28.4404 61.6536 27.667 62.0117C26.8936 62.3698 26.0879 62.5326 25.25 62.5C24.3799 62.5 23.5742 62.3372 22.833 62.0117C22.0918 61.6862 21.4473 61.2467 20.8994 60.6934C20.3516 60.14 19.9004 59.4727 19.5459 58.6914C19.1914 57.9102 19.0303 57.0964 19.0625 56.25C19.0625 55.3711 19.2236 54.5573 19.5459 53.8086C19.8682 53.0599 20.3032 52.4089 20.8511 51.8555C21.3989 51.3021 22.0596 50.8464 22.833 50.4883C23.6064 50.1302 24.4121 49.9674 25.25 50Z" fill="#175B85"/>
</g>
<defs>
<clipPath id="clip0_399_5542">
<rect width="99" height="100" fill="white" transform="translate(0.5)"/>
</clipPath>
</defs>
</svg>
