<svg width="101" height="100" viewBox="0 0 101 100" fill="none" xmlns="http://www.w3.org/2000/svg">
<path d="M79.6667 12.5V87.5H54.6667V72.9167H46.3333V87.5H21.3333V12.5H79.6667ZM63 29.1667H71.3333V20.8334H63V29.1667ZM46.3333 29.1667H54.6667V20.8334H46.3333V29.1667ZM29.6667 29.1667H38V20.8334H29.6667V29.1667ZM63 45.8334H71.3333V37.5H63V45.8334ZM46.3333 45.8334H54.6667V37.5H46.3333V45.8334ZM29.6667 45.8334H38V37.5H29.6667V45.8334ZM63 62.5H71.3333V54.1667H63V62.5ZM46.3333 62.5H54.6667V54.1667H46.3333V62.5ZM29.6667 62.5H38V54.1667H29.6667V62.5ZM63 79.1667H71.3333V70.8334H63V79.1667ZM29.6667 79.1667H38V70.8334H29.6667V79.1667ZM88 4.16669H13V95.8334H88V4.16669Z" fill="#175B85"/>
</svg>
