<svg width="101" height="100" viewBox="0 0 101 100" fill="none" xmlns="http://www.w3.org/2000/svg">
<g clip-path="url(#clip0_399_5533)">
<path d="M10.5 16.6667V13.3333C9.72969 13.3338 8.98332 13.601 8.38779 14.0896C7.79225 14.5782 7.38431 15.258 7.23333 16.0133L10.5 16.6667ZM90.5 16.6667L93.7667 16.0133C93.6157 15.258 93.2077 14.5782 92.6122 14.0896C92.0167 13.601 91.2703 13.3338 90.5 13.3333V16.6667ZM97.1667 50V53.3333C97.6596 53.333 98.1464 53.2234 98.5919 53.0123C99.0374 52.8012 99.4305 52.494 99.743 52.1127C100.055 51.7314 100.279 51.2855 100.399 50.8072C100.518 50.3289 100.53 49.8301 100.433 49.3467L97.1667 50ZM3.83333 50L0.566667 49.3467C0.470044 49.8301 0.481847 50.3289 0.601224 50.8072C0.720601 51.2855 0.944581 51.7314 1.25703 52.1127C1.56947 52.494 1.9626 52.8012 2.4081 53.0123C2.8536 53.2234 3.34036 53.333 3.83333 53.3333V50ZM23.8333 70H20.5V73.3333H23.8333V70ZM77.1667 70V73.3333H80.5V70H77.1667ZM0.5 100H100.5V93.3333H0.5V100ZM7.16667 50V96.6667H13.8333V50H7.16667ZM87.1667 50V96.6667H93.8333V50H87.1667ZM10.5 20H90.5V13.3333H10.5V20ZM87.2333 17.32L93.9 50.6533L100.433 49.3467L93.7667 16.0133L87.2333 17.32ZM97.1667 46.6667H3.83333V53.3333H97.1667V46.6667ZM7.1 50.6533L13.7667 17.32L7.23333 16.0133L0.566667 49.3467L7.1 50.6533ZM7.16667 6.66667H93.8333V0H7.16667V6.66667ZM20.5 50V70H27.1667V50H20.5ZM23.8333 73.3333H77.1667V66.6667H23.8333V73.3333ZM80.5 70V50H73.8333V70H80.5Z" fill="#175B85"/>
</g>
<defs>
<clipPath id="clip0_399_5533">
<rect width="100" height="100" fill="white" transform="translate(0.5)"/>
</clipPath>
</defs>
</svg>
