<svg width="101" height="100" viewBox="0 0 101 100" fill="none" xmlns="http://www.w3.org/2000/svg">
<path d="M45.8125 68.75C45.8125 69.5788 45.4833 70.3737 44.8972 70.9597C44.3112 71.5458 43.5163 71.875 42.6875 71.875H31.75C30.9212 71.875 30.1263 71.5458 29.5403 70.9597C28.9542 70.3737 28.625 69.5788 28.625 68.75C28.625 67.9212 28.9542 67.1263 29.5403 66.5403C30.1263 65.9542 30.9212 65.625 31.75 65.625H42.6875C43.5163 65.625 44.3112 65.9542 44.8972 66.5403C45.4833 67.1263 45.8125 67.9212 45.8125 68.75ZM69.25 65.625H58.3125C57.4837 65.625 56.6888 65.9542 56.1028 66.5403C55.5167 67.1263 55.1875 67.9212 55.1875 68.75C55.1875 69.5788 55.5167 70.3737 56.1028 70.9597C56.6888 71.5458 57.4837 71.875 58.3125 71.875H69.25C70.0788 71.875 70.8737 71.5458 71.4597 70.9597C72.0458 70.3737 72.375 69.5788 72.375 68.75C72.375 67.9212 72.0458 67.1263 71.4597 66.5403C70.8737 65.9542 70.0788 65.625 69.25 65.625ZM94.25 84.375C94.25 85.2038 93.9208 85.9987 93.3347 86.5847C92.7487 87.1708 91.9538 87.5 91.125 87.5H9.875C9.0462 87.5 8.25134 87.1708 7.66529 86.5847C7.07924 85.9987 6.75 85.2038 6.75 84.375C6.75 83.5462 7.07924 82.7513 7.66529 82.1653C8.25134 81.5792 9.0462 81.25 9.875 81.25H13V34.375C13 33.7947 13.1616 33.2258 13.4667 32.7321C13.7718 32.2384 14.2084 31.8395 14.7275 31.5799C15.2465 31.3204 15.8276 31.2105 16.4056 31.2626C16.9836 31.3147 17.5357 31.5268 18 31.875L38 46.875V34.375C38 33.7947 38.1616 33.2258 38.4667 32.7321C38.7718 32.2384 39.2084 31.8395 39.7275 31.5799C40.2465 31.3204 40.8276 31.2105 41.4056 31.2626C41.9836 31.3147 42.5357 31.5268 43 31.875L58.1328 43.2227L62.6484 11.6172C62.8671 10.1303 63.6117 8.77108 64.747 7.7863C65.8823 6.80152 67.3331 6.25643 68.8359 6.25H75.9141C77.4169 6.25643 78.8677 6.80152 80.003 7.7863C81.1383 8.77108 81.8829 10.1303 82.1016 11.6172L87.9609 52.6836C87.9609 52.6836 87.9922 52.9883 87.9922 53.125V81.25H91.1172C91.5282 81.249 91.9354 81.329 92.3155 81.4856C92.6955 81.6422 93.0409 81.8722 93.3319 82.1625C93.623 82.4528 93.8538 82.7977 94.0114 83.1773C94.1689 83.557 94.25 83.964 94.25 84.375ZM63.8359 47.5L67.168 50H81.2734L75.9141 12.5H68.8359L63.8359 47.5ZM19.25 81.25H81.75V56.25H66.125C65.4488 56.25 64.7909 56.0307 64.25 55.625L58.625 51.4063L44.25 40.625V53.125C44.25 53.7053 44.0884 54.2742 43.7833 54.7679C43.4782 55.2616 43.0416 55.6605 42.5225 55.9201C42.0035 56.1796 41.4224 56.2895 40.8444 56.2374C40.2664 56.1853 39.7143 55.9732 39.25 55.625L19.25 40.625V81.25Z" fill="#175B85"/>
</svg>
