<svg width="48" height="48" viewBox="0 0 48 48" fill="none" xmlns="http://www.w3.org/2000/svg">
<path fill-rule="evenodd" clip-rule="evenodd" d="M24 25.6201C21.3132 25.6201 19.1272 23.4342 19.1272 20.7475C19.1272 18.0604 21.3131 15.8745 24 15.8745C26.6869 15.8745 28.8728 18.0605 28.8728 20.7475C28.8728 23.4342 26.6868 25.6201 24 25.6201ZM24 16.8119C21.8301 16.8119 20.0647 18.5773 20.0647 20.7474C20.0647 22.9172 21.8301 24.6825 24 24.6825C26.1699 24.6825 27.9354 22.9172 27.9354 20.7474C27.9354 18.5773 26.1698 16.8119 24 16.8119Z" fill="white"/>
<path fill-rule="evenodd" clip-rule="evenodd" d="M22.6605 29.4327C22.5375 29.4327 22.4159 29.4123 22.299 29.372L20.0209 28.5859C19.7414 28.4896 19.5159 28.29 19.3864 28.0241C19.2568 27.7581 19.2385 27.4575 19.335 27.178L19.6417 26.2892C19.4248 26.1189 19.2183 25.9361 19.0241 25.7428L18.1793 26.1541C18.0267 26.2284 17.8637 26.266 17.6949 26.266C17.2741 26.266 16.883 26.0217 16.6988 25.6433L15.6436 23.4765C15.3763 22.9273 15.6056 22.2631 16.1546 21.9958L16.9993 21.5846C16.9668 21.3125 16.9504 21.0374 16.95 20.7613L16.0613 20.4547C15.4839 20.2555 15.1763 19.6238 15.3755 19.0465L16.1615 16.7683C16.3156 16.3219 16.7363 16.0219 17.2083 16.0219C17.3313 16.0219 17.4529 16.0423 17.5697 16.0826L18.4583 16.3893C18.6289 16.1722 18.8116 15.9656 19.0049 15.7715L18.5934 14.9267C18.464 14.6608 18.4457 14.3603 18.5423 14.0806C18.6387 13.8009 18.8384 13.5755 19.1046 13.446L21.271 12.391C21.4234 12.3167 21.5864 12.279 21.7554 12.279C22.1762 12.279 22.5673 12.5234 22.7514 12.9018L23.1629 13.7466C23.4354 13.7142 23.7112 13.6976 23.9862 13.6973L24.293 12.8085C24.4471 12.3621 24.8678 12.062 25.3397 12.062C25.4628 12.062 25.5843 12.0825 25.7012 12.1229L27.9792 12.9089C28.2587 13.0052 28.4843 13.2048 28.6138 13.4709C28.7434 13.7368 28.7614 14.0373 28.665 14.317L28.3584 15.2058C28.5754 15.3762 28.7819 15.5589 28.976 15.7523L29.8208 15.3408C29.9733 15.2665 30.1363 15.2289 30.3053 15.2289C30.7262 15.2289 31.1172 15.4733 31.3014 15.8516L32.3566 18.0183C32.4861 18.2843 32.5043 18.5847 32.4078 18.8644C32.3114 19.1441 32.1116 19.3696 31.8457 19.499L31.0009 19.9105C31.0335 20.1826 31.0499 20.4577 31.0503 20.7337L31.9389 21.0404C32.5161 21.2395 32.8238 21.8711 32.6249 22.4485L31.8386 24.7267C31.6845 25.1732 31.2639 25.4731 30.7919 25.4731C30.6688 25.4731 30.5474 25.4527 30.4305 25.4125L29.5418 25.1059C29.3715 25.3227 29.1888 25.5292 28.9954 25.7236L29.4067 26.5685C29.6742 27.1172 29.4451 27.7814 28.8961 28.049L26.7292 29.104C26.5766 29.1785 26.4136 29.216 26.2447 29.216C25.8239 29.216 25.4328 28.9716 25.2486 28.5931L24.8372 27.7484C24.5648 27.781 24.2891 27.7975 24.0139 27.7977L23.7072 28.6865C23.5531 29.1328 23.1324 29.4327 22.6605 29.4327ZM19.1264 24.7026C19.2558 24.7026 19.3829 24.7559 19.4741 24.8566C19.7693 25.1826 20.1035 25.4783 20.4673 25.7355C20.6374 25.8558 20.7078 26.0741 20.6398 26.2712L20.2214 27.4838C20.2014 27.5416 20.2177 27.5899 20.2292 27.6135C20.2407 27.6371 20.2688 27.6799 20.3267 27.6998L22.6049 28.4858C22.6233 28.4922 22.6419 28.4954 22.6605 28.4954C22.7206 28.4954 22.7935 28.4599 22.8208 28.3808L23.2394 27.1682C23.3073 26.9712 23.498 26.8439 23.7052 26.8528C24.1496 26.8745 24.5969 26.8476 25.0294 26.7733C25.2346 26.7378 25.4389 26.8426 25.5301 27.03L26.0913 28.1825C26.1256 28.2531 26.1931 28.2782 26.2447 28.2782C26.2701 28.2782 26.2951 28.2724 26.3186 28.261L28.4854 27.2058C28.5695 27.1647 28.6049 27.0629 28.5638 26.9785L28.0026 25.8259C27.9114 25.6386 27.9548 25.4136 28.1092 25.2735C28.4355 24.9776 28.7314 24.6433 28.9883 24.2799C29.1087 24.11 29.3267 24.0394 29.5239 24.1075L30.7364 24.5257C30.7546 24.5319 30.7735 24.5352 30.7921 24.5352C30.8523 24.5352 30.9253 24.4997 30.9526 24.4204L31.7388 22.1423C31.7693 22.0537 31.722 21.9567 31.6334 21.9262L30.4209 21.5078C30.2239 21.4398 30.0955 21.2501 30.1057 21.042C30.1273 20.5965 30.1005 20.1511 30.0262 19.7178C29.9908 19.5124 30.0954 19.3083 30.2828 19.2171L31.4353 18.6557C31.4904 18.6288 31.513 18.5833 31.5217 18.5584C31.5302 18.5334 31.5406 18.4836 31.5137 18.4284L30.4587 16.2616C30.4242 16.1911 30.3569 16.166 30.3053 16.166C30.2797 16.166 30.2549 16.1718 30.2312 16.1833L29.0789 16.7446C28.8914 16.8358 28.6663 16.7923 28.5261 16.6378C28.2311 16.3122 27.897 16.0166 27.5329 15.7589C27.3628 15.6386 27.2925 15.4204 27.3605 15.2234L27.7787 14.0108C27.7987 13.9528 27.7824 13.9045 27.7708 13.8807C27.7593 13.8571 27.7314 13.8145 27.6736 13.7946L25.3953 13.0085C25.377 13.0023 25.3582 12.9991 25.3397 12.9991C25.2795 12.9991 25.2065 13.0345 25.1791 13.1138L24.7608 14.3264C24.6928 14.5234 24.502 14.6514 24.2947 14.6417C23.8506 14.62 23.4034 14.6469 22.9706 14.7212C22.7656 14.7568 22.5611 14.6518 22.4698 14.4644L21.9085 13.3117C21.8741 13.2413 21.8068 13.216 21.7553 13.216C21.7297 13.216 21.7049 13.2219 21.6814 13.2334L19.5146 14.2886C19.4594 14.3153 19.437 14.361 19.4284 14.3859C19.4198 14.4108 19.4095 14.4607 19.4363 14.5158L19.9975 15.6682C20.0888 15.8558 20.0453 16.0809 19.8907 16.2209C19.5652 16.5159 19.2693 16.8502 19.0117 17.2143C18.8914 17.3844 18.6734 17.4548 18.4762 17.3866L17.2638 16.9683C17.2455 16.962 17.2267 16.9589 17.2082 16.9589C17.1479 16.9589 17.0749 16.9944 17.0474 17.0737L16.2615 19.3516C16.2309 19.4403 16.2782 19.5373 16.3668 19.5679L17.5793 19.9863C17.7763 20.0542 17.9047 20.244 17.8945 20.452C17.8729 20.8981 17.8996 21.3436 17.974 21.7762C18.0093 21.9818 17.9048 22.1858 17.7172 22.2772L16.5649 22.8384C16.4806 22.8793 16.4454 22.9814 16.4864 23.0658L17.5414 25.2323C17.5758 25.3028 17.6432 25.328 17.6948 25.328C17.7203 25.328 17.7452 25.3221 17.7687 25.3106L18.9213 24.7494C18.9868 24.718 19.0569 24.7026 19.1264 24.7026Z" fill="white"/>
<path fill-rule="evenodd" clip-rule="evenodd" d="M30.7006 39.3731H17.4111C17.1521 39.3731 16.9423 39.1633 16.9423 38.9044V38.8737C16.9423 35.6756 15.7829 32.6535 13.6778 30.3643C11.142 27.607 9.8257 24.0209 9.9712 20.2669C10.1117 16.6439 11.6349 13.2496 14.2601 10.7095C16.8843 8.17024 20.3269 6.75767 23.9539 6.73199L24.056 6.73154C31.8282 6.73154 38.1514 13.0548 38.1514 20.827C38.1514 24.3271 36.8594 27.6832 34.5134 30.2769C32.357 32.6615 31.1693 35.6943 31.1693 38.8172V38.9044C31.1693 39.1633 30.9594 39.3731 30.7006 39.3731ZM17.873 38.4357H30.2374C30.3299 35.2155 31.5932 32.1083 33.8182 29.6483C36.0078 27.2272 37.2138 24.0944 37.2138 20.8272C37.2138 13.5718 31.3112 7.66917 24.0559 7.66917L23.9606 7.6695C16.9142 7.71933 11.1807 13.2687 10.908 20.3032C10.7721 23.8082 12.0007 27.1559 14.3679 29.7297C16.536 32.0876 17.7717 35.1643 17.873 38.4357ZM23.8168 4.95387C23.5578 4.95387 23.3481 4.74415 23.3481 4.48515V0.469802C23.3481 0.210807 23.5578 0.000976562 23.8168 0.000976562C24.0757 0.000976562 24.2855 0.210808 24.2855 0.469802V4.48526C24.2855 4.74415 24.0757 4.95387 23.8168 4.95387ZM32.2163 6.89229C32.1396 6.89229 32.0617 6.87335 31.9898 6.8336C31.7633 6.70837 31.6813 6.42302 31.8066 6.19658L33.7509 2.68305C33.8764 2.45672 34.1616 2.37467 34.3881 2.4999C34.6145 2.62524 34.6966 2.91048 34.5712 3.13703L32.6268 6.65045C32.5412 6.80503 32.3812 6.89229 32.2163 6.89229ZM38.2305 13.1005C38.0697 13.1005 37.9133 13.0178 37.826 12.8692C37.6948 12.646 37.7693 12.3588 37.9925 12.2275L41.4545 10.1929C41.6779 10.0618 41.9649 10.1364 42.0962 10.3595C42.2273 10.5828 42.1527 10.87 41.9295 11.0012L38.4676 13.0359C38.3928 13.0796 38.3111 13.1005 38.2305 13.1005ZM44.273 21.212C44.2688 21.212 44.2647 21.212 44.2606 21.2119L40.2463 21.1073C39.9874 21.1006 39.7833 20.8854 39.7899 20.6266C39.7967 20.3678 40.0167 20.1648 40.2707 20.1701L44.2849 20.2746C44.5437 20.2814 44.748 20.4967 44.7412 20.7555C44.7347 21.0101 44.5261 21.212 44.273 21.212ZM41.5291 31.4306C41.4389 31.4306 41.3476 31.4046 41.2672 31.3503L37.9389 29.1038C37.7245 28.9588 37.6678 28.6675 37.8127 28.4529C37.9574 28.2385 38.2486 28.1817 38.4635 28.3267L41.7917 30.5732C42.0062 30.7181 42.0628 31.0095 41.918 31.224C41.8275 31.3581 41.6797 31.4306 41.5291 31.4306ZM15.7838 6.98785C15.6188 6.98785 15.4588 6.90059 15.3733 6.74601L13.4288 3.23248C13.3034 3.00593 13.3855 2.7208 13.6119 2.59546C13.8386 2.47034 14.1237 2.55216 14.2491 2.7786L16.1936 6.29203C16.3189 6.51869 16.2369 6.80381 16.0103 6.92916C15.9384 6.96902 15.8606 6.98785 15.7838 6.98785ZM9.76959 13.1961C9.68887 13.1961 9.60715 13.1753 9.53263 13.1314L6.07048 11.0968C5.84737 10.9656 5.77273 10.6783 5.90384 10.4551C6.03505 10.232 6.3225 10.1572 6.54551 10.2885L10.0076 12.3231C10.2308 12.4543 10.3054 12.7416 10.1742 12.9647C10.0868 13.1133 9.93026 13.1961 9.76959 13.1961ZM3.72712 21.3076C3.47389 21.3076 3.26539 21.1056 3.25874 20.8511C3.25199 20.5923 3.45639 20.3769 3.71506 20.3703L7.7293 20.2657C7.98663 20.262 8.20344 20.4634 8.21008 20.7222C8.21684 20.9809 8.01243 21.1962 7.75366 21.2029L3.73952 21.3075C3.73531 21.3075 3.73122 21.3076 3.72712 21.3076ZM6.47088 31.5262C6.32029 31.5262 6.17246 31.4539 6.08189 31.3197C5.93705 31.1051 5.99364 30.8138 6.20823 30.669L9.53651 28.4224C9.7511 28.2775 10.0425 28.3342 10.1874 28.5486C10.3322 28.7632 10.2756 29.0546 10.061 29.1994L6.73264 31.4461C6.65236 31.5003 6.56112 31.5262 6.47088 31.5262Z" fill="white"/>
<path fill-rule="evenodd" clip-rule="evenodd" d="M31.1398 42.2483H16.381C15.5288 42.2483 14.8354 41.5549 14.8354 40.7027V39.9812C14.8354 39.1289 15.5287 38.4355 16.381 38.4355H31.1398C31.9921 38.4355 32.6854 39.1289 32.6854 39.9812V40.7027C32.6854 41.555 31.9921 42.2483 31.1398 42.2483ZM16.381 39.373C16.0456 39.373 15.7729 39.6457 15.7729 39.9811V40.7027C15.7729 41.0379 16.0456 41.3107 16.381 41.3107H31.1398C31.4751 41.3107 31.7478 41.0379 31.7478 40.7026V39.9811C31.7478 39.6457 31.4751 39.373 31.1398 39.373H16.381Z" fill="white"/>
<path fill-rule="evenodd" clip-rule="evenodd" d="M29.3298 45.1239H18.1911C17.3388 45.1239 16.6454 44.4305 16.6454 43.5782V42.8567C16.6454 42.0044 17.3388 41.311 18.191 41.311H29.3299C30.1822 41.311 30.8756 42.0044 30.8756 42.8567V43.5782C30.8756 44.4305 30.1821 45.1239 29.3298 45.1239ZM18.1909 42.2485C17.8556 42.2485 17.5828 42.5212 17.5828 42.8566V43.5782C17.5828 43.9135 17.8556 44.1863 18.191 44.1863L29.3297 44.1862C29.665 44.1862 29.9379 43.9135 29.9379 43.5781V42.8566C29.9379 42.5212 29.665 42.2484 29.3297 42.2484L18.1909 42.2485Z" fill="white"/>
<path fill-rule="evenodd" clip-rule="evenodd" d="M25.6434 47.9994H21.8771C20.0333 47.9994 18.5331 46.4992 18.5331 44.6552C18.5331 44.3964 18.7428 44.1865 19.0018 44.1865H28.5189C28.7778 44.1865 28.9876 44.3964 28.9876 44.6554C28.9876 46.4992 27.4875 47.9994 25.6434 47.9994ZM19.5165 45.1241C19.7352 46.2274 20.7106 47.0618 21.8772 47.0618H25.6435C26.8102 47.0618 27.7857 46.2274 28.0044 45.1241H19.5165Z" fill="white"/>
</svg>
