<svg width="49" height="49" viewBox="0 0 49 49" fill="none" xmlns="http://www.w3.org/2000/svg">
<path d="M8.3564 19.4688C8.31028 19.5316 8.27187 19.5997 8.242 19.6716C8.242 19.6716 8.242 19.6976 8.242 19.7132C8.2194 19.7856 8.20715 19.8609 8.2056 19.9368C8.20714 20.0144 8.21939 20.0914 8.242 20.1656C8.242 20.1656 8.242 20.1916 8.242 20.202C8.27068 20.2745 8.30917 20.3427 8.3564 20.4048L23.5664 39.4888C23.6032 39.54 23.649 39.584 23.7016 39.6188H23.7328C23.7824 39.6553 23.8366 39.685 23.894 39.7072H23.9512C24.0963 39.7556 24.2533 39.7556 24.3984 39.7072H24.4556C24.513 39.685 24.5672 39.6553 24.6168 39.6188H24.648C24.7006 39.584 24.7464 39.54 24.7832 39.4888L39.9932 20.4048C40.1016 20.2659 40.1604 20.0948 40.1604 19.9186C40.1604 19.7424 40.1016 19.5713 39.9932 19.4324L34.1848 12.1524C34.1103 12.0616 34.0167 11.9884 33.9106 11.938C33.8045 11.8877 33.6886 11.8614 33.5712 11.8612H14.7836C14.6662 11.8614 14.5503 11.8877 14.4442 11.938C14.3381 11.9884 14.2444 12.0616 14.17 12.1524L8.3616 19.4324C8.3616 19.4324 8.3564 19.4636 8.3564 19.4688ZM18.0648 20.722L22.334 35.4536L10.5924 20.722H18.0648ZM37.7676 20.722L26.026 35.4536L30.2952 20.722H37.7676ZM24.18 36.2232L19.6872 20.722H28.6728L24.18 36.2232ZM37.7676 19.162H30.2952L28.6364 13.442H33.202L37.7676 19.162ZM27.014 13.442L28.6728 19.162H19.6872L21.346 13.442H27.014ZM15.158 13.442H19.7236L18.0648 19.162H10.5924L15.158 13.442ZM9.8852 10.9876C9.95739 11.0603 10.0433 11.1179 10.1379 11.1572C10.2325 11.1965 10.334 11.2166 10.4364 11.2164C10.6429 11.2145 10.8405 11.1325 10.9876 10.9876C11.1324 10.8407 11.2136 10.6427 11.2136 10.4364C11.2136 10.2301 11.1324 10.0321 10.9876 9.8852L8.1848 7.0824C8.03694 6.94462 7.84137 6.86961 7.6393 6.87318C7.43722 6.87674 7.24442 6.9586 7.10151 7.10151C6.9586 7.24442 6.87674 7.43722 6.87318 7.6393C6.86961 7.84137 6.94462 8.03694 7.0824 8.1848L9.8852 10.9876ZM4.7424 23.4H0.78C0.573131 23.4 0.374735 23.4822 0.228457 23.6285C0.0821784 23.7747 0 23.9731 0 24.18C0 24.3869 0.0821784 24.5853 0.228457 24.7315C0.374735 24.8778 0.573131 24.96 0.78 24.96H4.7424C4.94927 24.96 5.14766 24.8778 5.29394 24.7315C5.44022 24.5853 5.5224 24.3869 5.5224 24.18C5.5224 23.9731 5.44022 23.7747 5.29394 23.6285C5.14766 23.4822 4.94927 23.4 4.7424 23.4ZM9.8852 37.3724L7.0824 40.1752C7.00945 40.2473 6.95153 40.3331 6.912 40.4277C6.87247 40.5223 6.85211 40.6239 6.85211 40.7264C6.85211 40.8289 6.87247 40.9305 6.912 41.0251C6.95153 41.1197 7.00945 41.2055 7.0824 41.2776C7.22865 41.4237 7.4269 41.5057 7.6336 41.5057C7.8403 41.5057 8.03855 41.4237 8.1848 41.2776L10.9876 38.4748C11.1254 38.3269 11.2004 38.1314 11.1968 37.9293C11.1933 37.7272 11.1114 37.5344 10.9685 37.3915C10.8256 37.2486 10.6328 37.1667 10.4307 37.1632C10.2286 37.1596 10.0331 37.2346 9.8852 37.3724ZM24.18 42.8376C23.9731 42.8376 23.7747 42.9198 23.6285 43.0661C23.4822 43.2123 23.4 43.4107 23.4 43.6176V47.58C23.4 47.7869 23.4822 47.9853 23.6285 48.1315C23.7747 48.2778 23.9731 48.36 24.18 48.36C24.3869 48.36 24.5853 48.2778 24.7315 48.1315C24.8778 47.9853 24.96 47.7869 24.96 47.58V43.6176C24.96 43.4107 24.8778 43.2123 24.7315 43.0661C24.5853 42.9198 24.3869 42.8376 24.18 42.8376ZM38.4748 37.3724C38.3269 37.2346 38.1314 37.1596 37.9293 37.1632C37.7272 37.1667 37.5344 37.2486 37.3915 37.3915C37.2486 37.5344 37.1667 37.7272 37.1632 37.9293C37.1596 38.1314 37.2346 38.3269 37.3724 38.4748L40.1752 41.2776C40.3214 41.4237 40.5197 41.5057 40.7264 41.5057C40.9331 41.5057 41.1313 41.4237 41.2776 41.2776C41.3505 41.2055 41.4085 41.1197 41.448 41.0251C41.4875 40.9305 41.5079 40.8289 41.5079 40.7264C41.5079 40.6239 41.4875 40.5223 41.448 40.4277C41.4085 40.3331 41.3505 40.2473 41.2776 40.1752L38.4748 37.3724ZM47.58 23.4H43.6176C43.4107 23.4 43.2123 23.4822 43.0661 23.6285C42.9198 23.7747 42.8376 23.9731 42.8376 24.18C42.8376 24.3869 42.9198 24.5853 43.0661 24.7315C43.2123 24.8778 43.4107 24.96 43.6176 24.96H47.58C47.7869 24.96 47.9853 24.8778 48.1315 24.7315C48.2778 24.5853 48.36 24.3869 48.36 24.18C48.36 23.9731 48.2778 23.7747 48.1315 23.6285C47.9853 23.4822 47.7869 23.4 47.58 23.4ZM40.1752 7.0824L37.3724 9.8852C37.2276 10.0321 37.1464 10.2301 37.1464 10.4364C37.1464 10.6427 37.2276 10.8407 37.3724 10.9876C37.5195 11.1325 37.7171 11.2145 37.9236 11.2164C38.026 11.2166 38.1275 11.1965 38.2221 11.1572C38.3167 11.1179 38.4026 11.0603 38.4748 10.9876L41.2776 8.1848C41.4154 8.03694 41.4904 7.84137 41.4868 7.6393C41.4833 7.43722 41.4014 7.24442 41.2585 7.10151C41.1156 6.9586 40.9228 6.87674 40.7207 6.87318C40.5186 6.86961 40.3231 6.94462 40.1752 7.0824ZM24.18 5.5224C24.3869 5.5224 24.5853 5.44022 24.7315 5.29394C24.8778 5.14766 24.96 4.94927 24.96 4.7424V0.78C24.96 0.573131 24.8778 0.374735 24.7315 0.228457C24.5853 0.0821784 24.3869 0 24.18 0C23.9731 0 23.7747 0.0821784 23.6285 0.228457C23.4822 0.374735 23.4 0.573131 23.4 0.78V4.7424C23.4 4.94927 23.4822 5.14766 23.6285 5.29394C23.7747 5.44022 23.9731 5.5224 24.18 5.5224Z" fill="#175B85"/>
</svg>
