<svg width="48" height="48" viewBox="0 0 48 48" fill="none" xmlns="http://www.w3.org/2000/svg">
<path d="M30.7496 22.5C32.5297 22.5001 34.2698 21.9723 35.7499 20.9834C37.2299 19.9945 38.3836 18.5889 39.0648 16.9444C39.7461 15.2999 39.9243 13.4903 39.5771 11.7444C39.2299 9.99857 38.3728 8.39489 37.1141 7.13618C35.8554 5.87747 34.2518 5.02026 32.506 4.67296C30.7601 4.32567 28.9505 4.50387 27.3059 5.18505C25.6614 5.86623 24.2557 7.01978 23.2668 8.49983C22.2779 9.97988 21.75 11.72 21.75 13.5C21.7499 14.6819 21.9826 15.8522 22.4348 16.9442C22.8871 18.0361 23.55 19.0283 24.3857 19.8641C25.2214 20.6998 26.2135 21.3627 27.3055 21.815C28.3974 22.2673 29.5677 22.5001 30.7496 22.5ZM30.7496 6C32.233 5.99993 33.6831 6.43973 34.9165 7.2638C36.1499 8.08787 37.1113 9.25918 37.679 10.6296C38.2467 12.0001 38.3953 13.5081 38.1059 14.963C37.8166 16.4178 37.1023 17.7542 36.0534 18.8032C35.0046 19.8521 33.6682 20.5664 32.2133 20.8559C30.7584 21.1453 29.2504 20.9968 27.88 20.4291C26.5095 19.8615 25.3381 18.9002 24.514 17.6668C23.6899 16.4334 23.25 14.9834 23.25 13.5C23.2523 11.5116 24.0431 9.60537 25.4491 8.19936C26.855 6.79334 28.7613 6.00239 30.7496 6ZM44.961 35.8039C44.9173 35.6731 44.8384 35.557 44.7329 35.4682C44.6275 35.3794 44.4995 35.3214 44.3633 35.3006L42.6859 35.0441L41.9291 33.4316C41.8686 33.3026 41.7726 33.1934 41.6524 33.117C41.5321 33.0405 41.3925 32.9999 41.25 32.9999C41.1075 32.9999 40.9679 33.0405 40.8476 33.117C40.7274 33.1934 40.6314 33.3026 40.5709 33.4316L39.8141 35.0441L38.1367 35.3006C38.0005 35.3215 37.8726 35.3794 37.7671 35.4682C37.6617 35.557 37.5827 35.6731 37.5389 35.8038C37.4951 35.9345 37.4882 36.0747 37.5189 36.2091C37.5496 36.3435 37.6168 36.4668 37.713 36.5655L38.949 37.8319L38.6558 39.6293C38.6331 39.7681 38.6501 39.9106 38.7046 40.0403C38.7591 40.17 38.849 40.2818 38.9641 40.3629C39.0791 40.4439 39.2146 40.491 39.3551 40.4986C39.4956 40.5063 39.6354 40.4743 39.7586 40.4063L41.25 39.582L42.7414 40.4063C42.865 40.4729 43.0047 40.5041 43.1449 40.4965C43.2852 40.4888 43.4206 40.4427 43.5364 40.3631C43.6514 40.282 43.7412 40.1702 43.7957 40.0404C43.8501 39.9106 43.867 39.7681 43.8442 39.6293L43.551 37.8319L44.787 36.5655C44.8832 36.4668 44.9503 36.3435 44.981 36.2091C45.0117 36.0748 45.0048 35.9346 44.961 35.8039ZM42.213 37.0553C42.131 37.1393 42.0699 37.2415 42.0345 37.3535C41.9992 37.4656 41.9908 37.5843 42.0098 37.7003L42.1151 38.3464L41.6126 38.0689C41.5016 38.0074 41.3767 37.9752 41.2498 37.9752C41.1229 37.9752 40.998 38.0074 40.887 38.0689L40.3845 38.3464L40.4902 37.6999C40.5092 37.584 40.5007 37.4653 40.4654 37.3534C40.4301 37.2414 40.369 37.1393 40.287 37.0553L39.8059 36.5625L40.4362 36.4661C40.558 36.4475 40.6732 36.3992 40.7718 36.3255C40.8705 36.2518 40.9494 36.155 41.0017 36.0435L41.25 35.5151L41.4983 36.0439C41.5506 36.1553 41.6296 36.252 41.7282 36.3257C41.8269 36.3993 41.9421 36.4475 42.0638 36.4661L42.6937 36.5625L42.213 37.0553ZM21 37.3406V36.9094C20.9998 36.5153 20.9017 36.1275 20.7146 35.7806C21.1348 35.589 21.4911 35.2808 21.7411 34.8925C21.9911 34.5043 22.1244 34.0524 22.125 33.5906V33.1594C22.1243 32.6981 21.9913 32.2468 21.7418 31.8589C21.4923 31.4709 21.1367 31.1628 20.7172 30.9709C20.9032 30.6232 21.0003 30.2349 21 29.8406V29.4094C20.9993 28.7706 20.7452 28.1582 20.2935 27.7065C19.8418 27.2548 19.2294 27.0007 18.5906 27H15.1957C14.8429 26.4038 14.9734 25.1663 15.291 24.2363C15.5911 23.3576 15.7153 22.4284 15.6566 21.5018C15.5269 19.5578 14.4844 18.1256 12.9364 17.7645C11.8556 17.5121 11.0516 17.6021 10.5461 18.0308C9.98137 18.5104 10.0346 19.2731 10.0916 19.9391C10.1869 21.0634 10.2772 22.125 9.753 23.0006C9.06525 24.1496 8.1015 24.8006 6.9855 25.554C6.636 25.7903 6.27675 26.0325 5.91375 26.2984C5.60876 26.511 5.31962 26.7455 5.04862 27H1.91625C1.41244 26.9964 0.927775 27.1928 0.568545 27.546C0.209316 27.8993 0.00485258 28.3806 0 28.8844L0 39.3656C0.00485249 39.8695 0.209367 40.3509 0.568678 40.7041C0.927989 41.0574 1.41275 41.2537 1.91663 41.25H5.82863C6.63188 42.24 8.02612 43.2086 10.41 43.2086C10.5188 43.2086 10.6339 43.2011 10.7464 43.1974C10.4548 42.7436 10.2611 42.234 10.1775 41.7011C7.04325 41.5984 6.38625 39.4148 6.28387 38.9543V36.855C6.28387 36.6561 6.20486 36.4653 6.06421 36.3247C5.92355 36.184 5.73279 36.105 5.53387 36.105C5.33496 36.105 5.1442 36.184 5.00354 36.3247C4.86289 36.4653 4.78387 36.6561 4.78387 36.855V39.0293C4.78387 39.0725 4.78763 39.1157 4.79513 39.1583C4.83831 39.3598 4.89724 39.5577 4.97137 39.75H1.917C1.8108 39.7541 1.70731 39.7159 1.62917 39.6439C1.55102 39.5718 1.50458 39.4718 1.5 39.3656V28.8844C1.50458 28.7783 1.55097 28.6783 1.62903 28.6063C1.7071 28.5342 1.81049 28.496 1.91663 28.5H4.6665V31.437C4.6665 31.6359 4.74552 31.8267 4.88617 31.9673C5.02682 32.108 5.21759 32.187 5.4165 32.187C5.61541 32.187 5.80618 32.108 5.94683 31.9673C6.08748 31.8267 6.1665 31.6359 6.1665 31.437V28.005C6.354 27.8344 7.49025 27.0233 7.8255 26.7971C9.03675 25.9789 10.1813 25.2064 11.04 23.7709C11.8129 22.4801 11.6925 21.0626 11.586 19.812C11.568 19.5962 11.5527 19.3802 11.5402 19.164C11.8915 19.0943 12.2547 19.1153 12.5955 19.2251C13.9204 19.5345 14.1281 21.1226 14.16 21.6015C14.2058 22.3301 14.1079 23.0606 13.8716 23.7514C13.7509 24.1046 13.2713 25.6628 13.6031 27H12.9094C12.2706 27.0007 11.6582 27.2548 11.2065 27.7065C10.7548 28.1582 10.5007 28.7706 10.5 29.4094V29.8406C10.4997 30.2349 10.5968 30.6232 10.7828 30.9709C10.3633 31.1628 10.0077 31.4709 9.7582 31.8589C9.50867 32.2468 9.37568 32.6981 9.375 33.1594V33.5906C9.37562 34.0524 9.50887 34.5043 9.7589 34.8925C10.0089 35.2808 10.3652 35.589 10.7854 35.7806C10.5983 36.1275 10.5002 36.5153 10.5 36.9094V37.3406C10.5006 37.8024 10.6339 38.2543 10.884 38.6425C11.1341 39.0307 11.4905 39.3388 11.9107 39.5303C11.7235 39.877 11.6253 40.2649 11.625 40.659V41.0906C11.6257 41.7294 11.8798 42.3419 12.3315 42.7935C12.7832 43.2452 13.3956 43.4993 14.0344 43.5H17.4656C18.1044 43.4993 18.7168 43.2452 19.1685 42.7935C19.6202 42.3419 19.8743 41.7294 19.875 41.0906V40.6594C19.8747 40.2652 19.7765 39.8772 19.5892 39.5303C20.0095 39.3388 20.3659 39.0307 20.616 38.6425C20.8661 38.2543 20.9994 37.8024 21 37.3406ZM19.5 36.9094V37.3406C19.4997 37.5817 19.4038 37.8128 19.2333 37.9833C19.0628 38.1538 18.8317 38.2497 18.5906 38.25H12.9094C12.6683 38.2497 12.4372 38.1538 12.2667 37.9833C12.0962 37.8128 12.0003 37.5817 12 37.3406V36.9094C12.0003 36.6683 12.0962 36.4372 12.2667 36.2667C12.4372 36.0962 12.6683 36.0003 12.9094 36H18.5906C18.8317 36.0003 19.0628 36.0962 19.2333 36.2667C19.4038 36.4372 19.4997 36.6683 19.5 36.9094ZM12.9094 32.25H19.7156C19.9567 32.2503 20.1878 32.3462 20.3583 32.5167C20.5288 32.6872 20.6247 32.9183 20.625 33.1594V33.5906C20.6247 33.8317 20.5288 34.0628 20.3583 34.2333C20.1878 34.4038 19.9567 34.4997 19.7156 34.5H11.7844C11.5433 34.4997 11.3122 34.4038 11.1417 34.2333C10.9712 34.0628 10.8753 33.8317 10.875 33.5906V33.1594C10.8753 32.9183 10.9712 32.6872 11.1417 32.5167C11.3122 32.3462 11.5433 32.2503 11.7844 32.25H12.9094ZM12 29.4094C12.0003 29.1683 12.0962 28.9372 12.2667 28.7667C12.4372 28.5962 12.6683 28.5003 12.9094 28.5H18.5906C18.8317 28.5003 19.0628 28.5962 19.2333 28.7667C19.4038 28.9372 19.4997 29.1683 19.5 29.4094V29.8406C19.4997 30.0817 19.4038 30.3128 19.2333 30.4833C19.0628 30.6538 18.8317 30.7497 18.5906 30.75H12.9094C12.6683 30.7497 12.4372 30.6538 12.2667 30.4833C12.0962 30.3128 12.0003 30.0817 12 29.8406V29.4094ZM18.375 41.0906C18.3747 41.3317 18.2788 41.5628 18.1083 41.7333C17.9378 41.9038 17.7067 41.9997 17.4656 42H14.0344C13.7933 41.9997 13.5622 41.9038 13.3917 41.7333C13.2212 41.5628 13.1253 41.3317 13.125 41.0906V40.6594C13.1253 40.4183 13.2212 40.1872 13.3917 40.0167C13.5622 39.8462 13.7933 39.7503 14.0344 39.75H17.4656C17.7067 39.7503 17.9378 39.8462 18.1083 40.0167C18.2788 40.1872 18.3747 40.4183 18.375 40.6594V41.0906ZM28.632 23.7851L26.9201 32.6179C26.8948 32.7482 26.9045 32.8828 26.9483 33.0081C26.992 33.1334 27.0682 33.2449 27.1691 33.3311L30.2629 35.9749C30.3971 36.0896 30.5676 36.1532 30.7441 36.1545C30.9207 36.1559 31.0921 36.095 31.2281 35.9824L34.3219 33.42C34.4245 33.3351 34.5026 33.2244 34.5483 33.0994C34.594 32.9743 34.6055 32.8393 34.5817 32.7083L32.9531 23.7656C32.463 23.8703 31.966 23.9396 31.4659 23.973L33.0274 32.5448L30.7575 34.425L28.4756 32.475L30.1219 23.9801C29.6212 23.951 29.1233 23.886 28.632 23.7855V23.7851Z" fill="#175B85"/>
<path d="M24.3165 22.4999H25.3477C24.663 22.0865 24.0274 21.5966 23.4532 21.0397C20.9119 21.2526 18.5454 22.4198 16.8296 24.3067C16.7902 24.445 16.7569 24.5853 16.7107 24.7214C16.5701 25.1324 16.493 25.5625 16.482 25.9968C16.7177 26.078 16.9381 26.198 17.1341 26.3519C17.919 25.1656 18.9861 24.1927 20.2397 23.5204C21.4932 22.8481 22.8941 22.4975 24.3165 22.4999ZM38.0842 21.0037C37.5001 21.5755 36.8515 22.0776 36.1515 22.4999H37.9335C40.1889 22.4868 42.3574 23.3689 43.9634 24.9525C45.5693 26.5362 46.4816 28.6922 46.5 30.9475V41.2713C46.4976 41.4665 46.418 41.6527 46.2785 41.7893C46.1391 41.9259 45.9512 42.0016 45.756 41.9999H21.264C21.1331 42.5465 20.8854 43.0582 20.538 43.4999H45.756C46.3489 43.5013 46.9182 43.2674 47.3389 42.8496C47.7596 42.4318 47.9973 41.8642 48 41.2713V30.9475C47.9813 28.3209 46.9315 25.8067 45.0768 23.9467C43.2221 22.0867 40.7108 21.0298 38.0842 21.0037Z" fill="#175B85"/>
</svg>
